<svg width="588" height="149" viewBox="0 0 588 149" fill="none" xmlns="http://www.w3.org/2000/svg">
<path d="M83.4 1.40002C98.6 1.40002 109.4 4.73335 115.8 11.4C120.6 16.4667 123 22.8667 123 30.6C123 33.2667 122.733 36.0667 122.2 39L120.4 48.6C118.933 56.2 116.067 62.1334 111.8 66.4C107.667 70.6667 104 72.8 100.8 72.8L100.6 74.4C104.333 74.4 108.133 76.4667 112 80.6C115.867 84.7334 117.8 89.6 117.8 95.2C117.8 97.4667 117.533 99.8667 117 102.4L115.8 108.6C113.667 120.067 108.533 129.067 100.4 135.6C92.4 142.133 81.2 145.4 66.8 145.4H1.24574e-05L25.4 1.40002H83.4ZM65.4 86.6H46.4L41.6 114.2H60.6C60.8667 114.2 61.1333 114.2 61.4 114.2C67.5333 114.2 72.4 112.8 76 110C79.6 107.067 81.4 103.533 81.4 99.4C81.4 90.8667 76.0667 86.6 65.4 86.6ZM70.8 32.6H55.8L50.6 62.4H65.4C78.2 62.4 84.6 56.8 84.6 45.6C84.6 41.7334 83.4 38.6 81 36.2C78.7333 33.8 75.3333 32.6 70.8 32.6ZM198.845 1.40002C214.045 1.40002 224.845 4.73335 231.245 11.4C236.045 16.4667 238.445 22.8667 238.445 30.6C238.445 33.2667 238.179 36.0667 237.645 39L234.845 54.6C233.245 63.2667 230.445 70.2667 226.445 75.6C222.579 80.9334 218.245 84.7334 213.445 87L231.645 145.4H191.245L174.445 91.6H162.045L153.845 145.4H115.445L140.845 1.40002H198.845ZM186.245 32.6H171.245L166.045 67.4H180.045C187.112 67.4 192.179 65.7334 195.245 62.4C198.312 58.9334 199.845 54.4 199.845 48.8C199.845 38 195.312 32.6 186.245 32.6ZM307.519 1.28746e-05C339.652 1.28746e-05 355.719 13.1333 355.719 39.4C355.719 43.8 355.252 48.5334 354.319 53.6L347.319 93.6C344.119 112.133 337.185 125.867 326.519 134.8C315.852 143.733 300.852 148.2 281.519 148.2C262.185 148.2 248.719 143.733 241.119 134.8C235.919 128.667 233.319 120.2 233.319 109.4C233.319 104.6 233.852 99.3334 234.919 93.6L241.919 53.6C248.185 17.8667 270.052 1.28746e-05 307.519 1.28746e-05ZM286.919 117.2C293.585 117.2 298.919 115.467 302.919 112C306.919 108.533 309.719 102.133 311.319 92.8L318.119 54.4C318.519 51.7334 318.719 49.3334 318.719 47.2C318.719 36.4 313.252 31 302.319 31C288.585 31.2667 280.385 39.0667 277.719 54.4L270.919 92.8C270.385 96.1334 270.119 99.6 270.119 103.2C270.119 112.533 275.719 117.2 286.919 117.2ZM486.131 1.40002L440.331 74L460.731 145.4H422.731L407.731 92.6H391.931L382.531 145.4H346.531L371.931 1.40002H407.931L397.331 61.4H410.131L448.131 1.40002H486.131ZM562.181 145.4H461.781L487.181 1.40002H587.581L581.981 32.6H517.581L512.981 59.6H566.181L560.581 90.8H507.381L503.381 114.2H567.781L562.181 145.4Z" fill="white" fill-opacity="0.9"/>
</svg>
